<?xml version="1.0" encoding="utf-8"?>
<!-- Generator: Adobe Illustrator 16.0.0, SVG Export Plug-In . SVG Version: 6.00 Build 0)  -->
<!DOCTYPE svg PUBLIC "-//W3C//DTD SVG 1.1//EN" "http://www.w3.org/Graphics/SVG/1.1/DTD/svg11.dtd">
<svg version="1.1" id="图层_1" xmlns="http://www.w3.org/2000/svg" xmlns:xlink="http://www.w3.org/1999/xlink" x="0px" y="0px"
	 width="595.279px" height="841.89px" viewBox="0 0 595.279 841.89" enable-background="new 0 0 595.279 841.89"
	 xml:space="preserve">
<g>
	<path fill="#8549FC" d="M155.906,353.055v138.757c5.67,4.393,15.591,9.07,28.205,13.182
		c36.872,10.699,75.141,15.813,113.528,15.164c43.654,0,84.331-5.668,113.527-15.164c10.027-2.904,19.545-7.352,28.204-13.182
		V353.055c-30.473,15.449-82.631,25.37-141.731,25.37C238.537,378.425,186.379,368.362,155.906,353.055z M467.72,321.731v170.081
		c0,31.182-76.11,56.693-170.08,56.693c-93.971,0-170.08-25.512-170.08-56.693V321.731c0-31.181,76.109-56.693,170.08-56.693
		C391.61,265.038,467.72,290.55,467.72,321.731z M411.17,308.55c-36.872-10.701-75.143-15.813-113.528-15.166
		c-43.653,0-84.331,5.669-113.528,15.166c-12.756,4.252-22.394,8.788-28.205,13.181c5.67,4.394,15.591,9.071,28.205,13.182
		c36.872,10.701,75.141,15.813,113.528,15.165c43.654,0,84.331-5.669,113.528-15.165c10.026-2.904,19.544-7.351,28.203-13.182
		C430.714,315.901,421.197,311.455,411.17,308.55z M212.6,470.552c0,7.828-6.348,14.174-14.173,14.174
		c-7.828,0-14.176-6.346-14.176-14.174v-70.867c0-7.828,6.348-14.173,14.176-14.173c7.825,0,14.173,6.346,14.173,14.173V470.552z
		 M311.813,484.726c0,7.826-6.345,14.172-14.173,14.172c-7.827,0-14.175-6.346-14.175-14.172v-70.868
		c0-7.828,6.348-14.173,14.175-14.173c7.828,0,14.173,6.346,14.173,14.173V484.726z M411.027,470.552
		c0,7.828-6.346,14.174-14.173,14.174c-7.828,0-14.174-6.346-14.174-14.174v-70.867c0-7.828,6.346-14.173,14.174-14.173
		c7.827,0,14.173,6.346,14.173,14.173V470.552z"/>
	<rect x="0" y="123.305" fill="none" width="595.279" height="595.28"/>
</g>
</svg>
